# xmcd CD database file
#
# Track frame offsets:
#	150
#	22340
#	37902
#	65657
#	93587
#	112060
#	137445
#	161230
#	174540
#	197020
#
# Disc length: 2872 seconds
#
# Revision: 0
# Processed by: cddbd v1.5.1PL2 Copyright (c) Steve Scherf et al.
# Submitted via: CDex 1.51
#
DISCID=8e0b360a
DTITLE=Ella Fitzgerald - The Best Of Ella Fitzgerald
DYEAR=1988
DGENRE=Jazz
TTITLE0=Dreamer (Vivo Sonhando)
TTITLE1=You're Blase
TTITLE2=Fine And Mellow
TTITLE3=Honeysuckle Rose
TTITLE4=Street Of Dreams
TTITLE5=I'm Walkin'
TTITLE6=This Love That I Found (So Tinha De Ser Com Voce)
TTITLE7=I'm Getting Sentimental Over You
TTITLE8=How Long Has This Been Going On?
TTITLE9=Don't Be That Way
EXTD=YEAR: 1988
EXTT0=
EXTT1=
EXTT2=
EXTT3=
EXTT4=
EXTT5=
EXTT6=
EXTT7=
EXTT8=
EXTT9=
PLAYORDER=
